<?xml version="1.0" encoding="UTF-8" standalone="no"?>
<!-- Created with matplotlib (http://matplotlib.org/) -->

<svg
   xmlns:ns0="http://www.iki.fi/pav/software/textext/"
   xmlns:dc="http://purl.org/dc/elements/1.1/"
   xmlns:cc="http://creativecommons.org/ns#"
   xmlns:rdf="http://www.w3.org/1999/02/22-rdf-syntax-ns#"
   xmlns:svg="http://www.w3.org/2000/svg"
   xmlns="http://www.w3.org/2000/svg"
   xmlns:xlink="http://www.w3.org/1999/xlink"
   xmlns:sodipodi="http://sodipodi.sourceforge.net/DTD/sodipodi-0.dtd"
   xmlns:inkscape="http://www.inkscape.org/namespaces/inkscape"
   sodipodi:docname="BarrierDiagram.svg"
   inkscape:version="0.91 r13725"
   id="svg2"
   width="720pt"
   viewBox="0 0 720 360"
   version="1.1"
   height="360pt">
  <sodipodi:namedview
     inkscape:current-layer="svg2"
     inkscape:window-maximized="0"
     inkscape:window-y="42"
     inkscape:window-x="776"
     inkscape:cy="224.65078"
     inkscape:cx="450"
     inkscape:zoom="0.70444444"
     showgrid="false"
     id="namedview390"
     inkscape:window-height="601"
     inkscape:window-width="1132"
     inkscape:pageshadow="2"
     inkscape:pageopacity="0"
     guidetolerance="10"
     gridtolerance="10"
     objecttolerance="10"
     borderopacity="1"
     bordercolor="#666666"
     pagecolor="#ffffff" />
  <metadata
     id="metadata392">
    <rdf:RDF>
      <cc:Work
         rdf:about="">
        <dc:format>image/svg+xml</dc:format>
        <dc:type
           rdf:resource="http://purl.org/dc/dcmitype/StillImage" />
        <dc:title></dc:title>
      </cc:Work>
    </rdf:RDF>
  </metadata>
  <defs
     id="defs4">
    <marker
       inkscape:stockid="Arrow1Lend"
       orient="auto"
       refY="0.0"
       refX="0.0"
       id="Arrow1Lend"
       style="overflow:visible;"
       inkscape:isstock="true">
      <path
         id="path4928"
         d="M 0.0,0.0 L 5.0,-5.0 L -12.5,0.0 L 5.0,5.0 L 0.0,0.0 z "
         style="fill-rule:evenodd;stroke:#0000ff;stroke-width:1pt;stroke-opacity:1;fill:#0000ff;fill-opacity:1"
         transform="scale(0.8) rotate(180) translate(12.5,0)" />
    </marker>
    <style
       id="style6"
       type="text/css">
*{stroke-linecap:butt;stroke-linejoin:round;}
  </style>
    <clipPath
       id="p7a9eb3f0f5-0">
      <rect
         id="rect388-9"
         y="36"
         x="90"
         width="558"
         height="279" />
    </clipPath>
    <marker
       inkscape:stockid="Arrow1Lend"
       orient="auto"
       refY="0"
       refX="0"
       id="Arrow1Lend-6"
       style="overflow:visible"
       inkscape:isstock="true">
      <path
         inkscape:connector-curvature="0"
         id="path4928-9"
         d="M 0,0 5,-5 -12.5,0 5,5 0,0 Z"
         style="fill:#ffff00;fill-opacity:1;fill-rule:evenodd;stroke:#ffff00;stroke-width:1pt;stroke-opacity:1"
         transform="matrix(-0.8,0,0,-0.8,-10,0)" />
    </marker>
    <marker
       inkscape:stockid="Arrow1Lend"
       orient="auto"
       refY="0"
       refX="0"
       id="Arrow1Lend-6-8"
       style="overflow:visible"
       inkscape:isstock="true">
      <path
         inkscape:connector-curvature="0"
         id="path4928-9-3"
         d="M 0,0 5,-5 -12.5,0 5,5 0,0 Z"
         style="fill:#00ff00;fill-opacity:1;fill-rule:evenodd;stroke:#00ff00;stroke-width:1pt;stroke-opacity:1"
         transform="matrix(-0.8,0,0,-0.8,-10,0)" />
    </marker>
  </defs>
  <g
     style="stroke-linecap:butt;stroke-linejoin:round"
     id="patch_1">
    <path
       inkscape:connector-curvature="0"
       d="M 0,360 720,360 720,0 0,0 Z"
       style="fill:#ffffff;stroke-linecap:butt;stroke-linejoin:round"
       id="path10" />
  </g>
  <g
     style="stroke-linecap:butt;stroke-linejoin:round"
     id="xtick_1">
    <g
       style="stroke-linecap:butt;stroke-linejoin:round"
       id="line2d_1">
      <path
         inkscape:connector-curvature="0"
         clip-path="url(#p7a9eb3f0f5)"
         d="M 90,315 90,36"
         style="fill:none;stroke:#cccccc;stroke-linecap:round;stroke-linejoin:round"
         id="path19" />
    </g>
    <g
       style="stroke-linecap:butt;stroke-linejoin:round"
       id="line2d_2">
      <defs
         id="defs22">
        <path
           inkscape:connector-curvature="0"
           d="M 0,0 0,0"
           id="m219da94a98"
           style="stroke:#262626;stroke-linecap:butt;stroke-linejoin:round" />
      </defs>
      <g
         style="stroke-linecap:butt;stroke-linejoin:round"
         id="g25">
        <use
           height="100%"
           width="100%"
           style="fill:#262626;stroke:#262626;stroke-linecap:butt;stroke-linejoin:round"
           x="90"
           xlink:href="#m219da94a98"
           y="315"
           id="use27" />
      </g>
    </g>
    <g
       style="stroke-linecap:butt;stroke-linejoin:round"
       id="text_1">
      <!-- 0 -->
      <defs
         id="defs30">
        <path
           style="stroke-linecap:butt;stroke-linejoin:round"
           inkscape:connector-curvature="0"
           d="m 51.7031,34.4219 q 0,-9.9063 -1.875,-16.6719 -1.875,-6.7656 -5.125,-10.9375 -3.25,-4.17188 -7.6406,-5.984375 -4.3906,-1.8125 -9.375,-1.8125 -5.0313,0 -9.375,1.8125 Q 13.9688,2.64062 10.7656,6.78125 7.5625,10.9375 5.73438,17.7031 3.90625,24.4688 3.90625,34.4219 q 0,10.4062 1.82813,17.2187 1.82812,6.8125 5.04682,10.8594 3.2344,4.0469 7.625,5.6875 4.3907,1.6406 9.5782,1.6406 4.9218,0 9.2344,-1.6406 Q 41.5469,66.5469 44.7656,62.5 48,58.4531 49.8438,51.6406 51.7031,44.8281 51.7031,34.4219 m -8.9219,0 q 0,8.2031 -0.9843,13.6406 -0.9688,5.4531 -2.875,8.7031 -1.9063,3.25 -4.6719,4.5938 -2.75,1.3437 -6.2656,1.3437 -3.7188,0 -6.5469,-1.375 -2.8281,-1.3593 -4.7656,-4.6093 -1.9219,-3.25 -2.9063,-8.7032 -0.9687,-5.4375 -0.9687,-13.5937 0,-7.9063 1,-13.3281 1,-5.4219 2.9219,-8.7188 1.9374,-3.29688 4.7187,-4.73438 2.7813,-1.4375 6.3437,-1.4375 3.4688,0 6.25,1.4375 2.7813,1.4375 4.7032,4.73438 1.9375,3.2969 2.9844,8.7188 1.0624,5.4218 1.0624,13.3281"
           id="LiberationSans-30" />
      </defs>
      <g
         style="fill:#262626;stroke-linecap:butt;stroke-linejoin:round"
         transform="matrix(0.18,0,0,-0.18,85.698281,335.04437)"
         id="g33">
        <use
           height="100%"
           width="100%"
           y="0"
           x="0"
           style="stroke-linecap:butt;stroke-linejoin:round"
           xlink:href="#LiberationSans-30"
           id="use35" />
      </g>
    </g>
  </g>
  <g
     style="stroke-linecap:butt;stroke-linejoin:round"
     id="text_7">
    <!-- $x$ - position -->
    <defs
       id="defs125">
      <path
         style="stroke-linecap:butt;stroke-linejoin:round"
         inkscape:connector-curvature="0"
         d="m 46.3906,14.5938 q 0,-3.7032 -1.4531,-6.60942 Q 43.5,5.07812 40.7656,3.09375 38.0312,1.125 34.0469,0.0625 q -3.9688,-1.046875 -9.0938,-1.046875 -4.5937,0 -8.2812,0.71875 Q 12.9844,0.4375 10.2031,2 7.42188,3.5625 5.53125,6.125 q -1.875,2.5625 -2.75,6.2812 l 7.76565,1.5157 q 1.125,-4.25002 4.6406,-6.2344 3.5156,-1.96875 9.7656,-1.96875 2.8281,0 5.1875,0.39063 2.375,0.39062 4.0782,1.34374 1.7187,0.95313 2.6718,2.53126 0.9532,1.59372 0.9532,3.93752 0,2.3906 -1.125,3.9219 -1.125,1.5468 -3.125,2.5624 -2,1.0313 -4.8594,1.7813 -2.8594,0.7656 -6.2656,1.6875 -3.1876,0.8281 -6.3126,1.8594 -3.125,1.0312 -5.6406,2.7031 -2.49998,1.6875 -4.06248,4.1719 -1.5625,2.5 -1.5625,6.2656 0,7.2188 5.14058,11 5.1563,3.7812 15.0157,3.7812 8.75,0 13.8906,-3.0781 5.1563,-3.0625 6.5156,-9.8593 L 37.5469,39.75 q -0.4375,2.0469 -1.6094,3.4375 -1.1719,1.3906 -2.8281,2.25 -1.6563,0.8594 -3.7344,1.2187 -2.0781,0.3594 -4.3281,0.3594 -5.9531,0 -8.7969,-1.8125 -2.8281,-1.7969 -2.8281,-5.4531 0,-2.1562 1.0469,-3.5469 1.0624,-1.3906 2.9374,-2.3437 1.875,-0.9532 4.5157,-1.6563 2.6406,-0.7031 5.8125,-1.4843 2.0937,-0.5469 4.2968,-1.1563 2.2032,-0.6094 4.2657,-1.4687 2.0781,-0.8438 3.9062,-2 1.8438,-1.1407 3.2031,-2.75 1.375,-1.6094 2.1719,-3.7657 0.8125,-2.1406 0.8125,-4.9843"
         id="LiberationSans-73" />
      <path
         style="stroke-linecap:butt;stroke-linejoin:round"
         inkscape:connector-curvature="0"
         d="m 51.4219,26.6562 q 0,-6 -0.9844,-11.0781 -0.9687,-5.0781 -3.25,-8.74998 -2.2656,-3.65624 -6,-5.73437 -3.7344,-2.078125 -9.2031,-2.078125 -5.6719,0 -9.9219,2.156255 -4.2344,2.15624 -6.4844,7.03124 l -0.25,0 Q 15.375,8.10938 15.4062,7.32812 15.4375,6.54688 15.4531,5.375 15.4844,4.20312 15.5,2.75 15.5312,1.3125 15.5312,-0.09375 l 0,-20.65625 -8.79682,0 0,62.7969 q 0,1.9062 -0.03126,3.6562 Q 6.6875,47.4688 6.64062,48.9062 6.59375,50.3438 6.54688,51.3594 6.5,52.3906 6.45312,52.8281 l 8.48438,0 q 0.0469,-0.1406 0.125,-1.0312 0.0781,-0.875 0.1406,-2.125 0.0781,-1.2344 0.1563,-2.6563 0.0781,-1.4062 0.0781,-2.6718 l 0.1875,0 q 1.2188,2.5312 2.7812,4.3124 1.5626,1.7813 3.5626,2.9219 2,1.1563 4.4687,1.6719 2.4687,0.5156 5.5469,0.5156 5.4687,0 9.2031,-1.9531 3.7344,-1.9531 6,-5.5 2.2813,-3.5313 3.25,-8.5469 0.9844,-5 0.9844,-11.1094 m -9.2344,-0.1874 q 0,4.875 -0.5937,8.6874 -0.5782,3.8126 -2.0157,6.4376 -1.4375,2.6406 -3.8437,4 -2.3906,1.375 -6,1.375 -2.9219,0 -5.5156,-0.8282 Q 21.625,45.3125 19.7031,42.9688 17.7812,40.625 16.6562,36.5 q -1.125,-4.125 -1.125,-10.7188 0,-5.6093 0.9219,-9.5 0.9375,-3.875 2.7188,-6.2656 1.7812,-2.3906 4.4062,-3.4531 2.6407,-1.04688 6.0625,-1.04688 3.6563,0 6.0782,1.40626 2.4218,1.42187 3.8593,4.10932 1.4375,2.6876 2.0157,6.5626 0.5937,3.8906 0.5937,8.875"
         id="LiberationSans-70" />
      <path
         style="stroke-linecap:butt;stroke-linejoin:round"
         inkscape:connector-curvature="0"
         d="m 27.0469,0.390625 q -2,-0.53125 -4.0781,-0.84375 -2.0626,-0.328125 -4.7969,-0.328125 -10.5469,0 -10.5469,11.96875 l 0,35.25 -6.10938,0 0,6.3906 6.4375,0 2.59378,11.8281 5.8593,0 0,-11.8281 9.7657,0 0,-6.3906 -9.7657,0 0,-33.3437 q 0,-3.81255 1.2344,-5.35942 1.25,-1.53126 4.3282,-1.53126 1.2812,0 2.4687,0.1875 1.2031,0.20313 2.6094,0.5 z"
         id="LiberationSans-74" />
      <path
         style="stroke-linecap:butt;stroke-linejoin:round"
         inkscape:connector-curvature="0"
         d="m 4.4375,22.6562 0,7.8126 24.4219,0 0,-7.8126 z"
         id="LiberationSans-2d" />
      <path
         style="stroke-linecap:butt;stroke-linejoin:round"
         inkscape:connector-curvature="0"
         d="m 6.6875,64.0625 0,8.4063 8.7969,0 0,-8.4063 z m 0,-64.0625 0,52.8281 8.7969,0 0,-52.8281 z"
         id="LiberationSans-69" />
      <path
         style="stroke-linecap:butt;stroke-linejoin:round"
         inkscape:connector-curvature="0"
         d="m 40.2812,0 0,33.5 q 0,3.8594 -0.5624,6.4375 -0.5626,2.5937 -1.8282,4.1719 -1.2656,1.5937 -3.3437,2.25 -2.0781,0.6562 -5.1563,0.6562 -3.125,0 -5.6406,-1.0937 -2.5156,-1.0938 -4.2969,-3.1719 -1.7812,-2.0781 -2.7656,-5.125 -0.9687,-3.0469 -0.9687,-7.0156 l 0,-30.6094 -8.7813,0 0,41.5469 q 0,1.6719 -0.03125,3.5 Q 6.89062,46.875 6.82812,48.5 6.78125,50.1406 6.73438,51.3125 6.6875,52.4844 6.64062,52.8281 l 8.29688,0 q 0.0469,-0.2343 0.0937,-1.3125 0.0626,-1.0781 0.125,-2.4687 0.0782,-1.3907 0.125,-2.8281 0.0469,-1.4376 0.0469,-2.4219 l 0.1563,0 q 1.2656,2.2969 2.7812,4.1562 1.5156,1.8594 3.5156,3.1407 2,1.2968 4.5782,2 2.5937,0.7187 6.0156,0.7187 4.3906,0 7.5625,-1.0781 3.1719,-1.0782 5.2187,-3.3282 2.0626,-2.2343 3.0157,-5.7812 0.9531,-3.5312 0.9531,-8.4219 L 49.125,0 Z"
         id="LiberationSans-6e" />
      <path
         style="stroke-linecap:butt;stroke-linejoin:round"
         inkscape:connector-curvature="0"
         d="m 51.4219,26.4688 q 0,-13.875 -6.1094,-20.67192 -6.1094,-6.781255 -17.7187,-6.781255 -5.5157,0 -9.875,1.65625 -4.3438,1.671875 -7.3438,5.093745 -3,3.42188 -4.59375,8.56248 -1.57813,5.1563 -1.57813,12.1407 0,27.3437 23.67188,27.3437 6.1562,0 10.625,-1.7187 4.4688,-1.7032 7.3281,-5.125 2.8594,-3.4063 4.2188,-8.5469 1.375,-5.125 1.375,-11.9531 m -9.2344,0 q 0,6.1562 -0.9531,10.1562 -0.9532,4 -2.7813,6.3906 -1.8281,2.3906 -4.4687,3.3438 -2.6406,0.9531 -5.9532,0.9531 -3.375,0 -6.0937,-1 -2.7031,-1 -4.6094,-3.4219 -1.8906,-2.4062 -2.9062,-6.4218 -1,-4 -1,-10 0,-6.1563 1.0781,-10.1876 1.0781,-4.0312 2.9531,-6.42182 1.8907,-2.39063 4.4531,-3.375 2.5626,-0.96876 5.5782,-0.96876 3.375,0 6.1094,0.95313 2.7343,0.95313 4.6406,3.34375 1.9062,2.3906 2.9218,6.4375 1.0313,4.0625 1.0313,10.2188"
         id="LiberationSans-6f" />
      <path
         style="stroke-linecap:butt;stroke-linejoin:round"
         inkscape:connector-curvature="0"
         d=""
         id="LiberationSans-20" />
      <path
         style="stroke-linecap:butt;stroke-linejoin:round"
         inkscape:connector-curvature="0"
         d="m 7.8125,2.875 q 1.76562,-1.35938 4.9844,-1.35938 3.125,0 5.5156,3 2.3906,3 3.2656,6.56248 l 4.5469,17.7344 q 1.0781,4.8281 1.0781,6.5937 0,2.4844 -1.3906,4.3438 -1.3906,1.8594 -3.8906,1.8594 -3.1719,0 -5.9531,-1.9844 Q 13.1875,37.6406 11.2812,34.5938 9.375,31.5469 8.59375,28.4219 8.40625,27.7812 7.8125,27.7812 l -1.21875,0 q -0.78125,0 -0.78125,0.9376 l 0,0.2812 q 0.96875,3.7188 3.3125,7.25 2.3438,3.5469 5.7344,5.7344 3.4062,2.2031 7.2656,2.2031 3.6562,0 6.6094,-1.9531 2.9531,-1.9532 4.1718,-5.3125 1.7188,3.0625 4.375,5.1562 2.6563,2.1094 5.8282,2.1094 2.1562,0 4.3906,-0.7656 2.25,-0.75 3.6719,-2.3125 1.4219,-1.5625 1.4219,-3.9063 0,-2.5312 -1.6407,-4.375 Q 49.3125,31 46.7812,31 q -1.6093,0 -2.6874,1.0312 -1.0782,1.0313 -1.0782,2.5938 0,2.0938 1.4375,3.6719 1.4531,1.5937 3.4531,1.8906 -1.8124,1.4219 -4.9843,1.4219 -3.2188,0 -5.5938,-2.9844 -2.3593,-2.9844 -3.3437,-6.6406 L 29.5938,14.3125 q -1.0782,-4.0156 -1.0782,-6.59375 0,-2.54687 1.4375,-4.375 1.4375,-1.82813 3.8438,-1.82813 4.6875,0 8.3593,4.125 3.6876,4.125 4.8594,9.06248 0.2032,0.5781 0.7813,0.5781 l 1.2343,0 q 0.3907,0 0.625,-0.2656 0.25,-0.2656 0.25,-0.6094 0,-0.0937 -0.0937,-0.2968 Q 48.3906,8.15625 43.8438,3.51562 39.3125,-1.125 33.5938,-1.125 q -3.6563,0 -6.6094,1.96875 -2.9532,1.98437 -4.1875,5.35937 -1.5625,-2.9375 -4.3281,-5.14062 -2.75,-2.1875 -5.875,-2.1875 -2.1407,0 -4.42192,0.765625 -2.26563,0.75 -3.6875,2.312495 -1.40626,1.5625 -1.40626,3.95313 0,2.34375 1.625,4.26565 1.64063,1.9375 4.09376,1.9375 1.65622,0 2.78122,-1 1.125,-1 1.125,-2.6094 0,-2.10938 -1.4062,-3.67188 Q 9.90625,3.26562 7.8125,2.875"
         id="Cmmi10-78" />
    </defs>
    <g
       style="fill:#262626;stroke-linecap:butt;stroke-linejoin:round"
       transform="matrix(0.18,0,0,-0.18,324.81,356.91937)"
       id="g136">
      <use
         height="100%"
         width="100%"
         y="0"
         x="0"
         style="stroke-linecap:butt;stroke-linejoin:round"
         transform="translate(0,0.53125)"
         xlink:href="#Cmmi10-78"
         id="use138" />
      <use
         height="100%"
         width="100%"
         y="0"
         x="0"
         style="stroke-linecap:butt;stroke-linejoin:round"
         transform="translate(57.080078,0.53125)"
         xlink:href="#LiberationSans-20"
         id="use140" />
      <use
         height="100%"
         width="100%"
         y="0"
         x="0"
         style="stroke-linecap:butt;stroke-linejoin:round"
         transform="translate(84.863281,0.53125)"
         xlink:href="#LiberationSans-2d"
         id="use142" />
      <use
         height="100%"
         width="100%"
         y="0"
         x="0"
         style="stroke-linecap:butt;stroke-linejoin:round"
         transform="translate(118.16406,0.53125)"
         xlink:href="#LiberationSans-20"
         id="use144" />
      <use
         height="100%"
         width="100%"
         y="0"
         x="0"
         style="stroke-linecap:butt;stroke-linejoin:round"
         transform="translate(145.94727,0.53125)"
         xlink:href="#LiberationSans-70"
         id="use146" />
      <use
         height="100%"
         width="100%"
         y="0"
         x="0"
         style="stroke-linecap:butt;stroke-linejoin:round"
         transform="translate(201.5625,0.53125)"
         xlink:href="#LiberationSans-6f"
         id="use148" />
      <use
         height="100%"
         width="100%"
         y="0"
         x="0"
         style="stroke-linecap:butt;stroke-linejoin:round"
         transform="translate(257.17773,0.53125)"
         xlink:href="#LiberationSans-73"
         id="use150" />
      <use
         height="100%"
         width="100%"
         y="0"
         x="0"
         style="stroke-linecap:butt;stroke-linejoin:round"
         transform="translate(307.17773,0.53125)"
         xlink:href="#LiberationSans-69"
         id="use152" />
      <use
         height="100%"
         width="100%"
         y="0"
         x="0"
         style="stroke-linecap:butt;stroke-linejoin:round"
         transform="translate(329.39453,0.53125)"
         xlink:href="#LiberationSans-74"
         id="use154" />
      <use
         height="100%"
         width="100%"
         y="0"
         x="0"
         style="stroke-linecap:butt;stroke-linejoin:round"
         transform="translate(357.17773,0.53125)"
         xlink:href="#LiberationSans-69"
         id="use156" />
      <use
         height="100%"
         width="100%"
         y="0"
         x="0"
         style="stroke-linecap:butt;stroke-linejoin:round"
         transform="translate(379.39453,0.53125)"
         xlink:href="#LiberationSans-6f"
         id="use158" />
      <use
         height="100%"
         width="100%"
         y="0"
         x="0"
         style="stroke-linecap:butt;stroke-linejoin:round"
         transform="translate(435.00977,0.53125)"
         xlink:href="#LiberationSans-6e"
         id="use160" />
    </g>
  </g>
  <g
     style="stroke-linecap:butt;stroke-linejoin:round"
     id="ytick_1">
    <g
       style="stroke-linecap:butt;stroke-linejoin:round"
       id="line2d_13">
      <path
         inkscape:connector-curvature="0"
         clip-path="url(#p7a9eb3f0f5)"
         d="m 90,315 558,0"
         style="fill:none;stroke:#cccccc;stroke-linecap:round;stroke-linejoin:round"
         id="path165" />
    </g>
    <g
       style="stroke-linecap:butt;stroke-linejoin:round"
       id="line2d_14">
      <g
         style="stroke-linecap:butt;stroke-linejoin:round"
         id="g168">
        <use
           height="100%"
           width="100%"
           style="fill:#262626;stroke:#262626;stroke-linecap:butt;stroke-linejoin:round"
           x="90"
           xlink:href="#m219da94a98"
           y="315"
           id="use170" />
      </g>
    </g>
    <g
       style="stroke-linecap:butt;stroke-linejoin:round"
       id="text_8">
      <!-- 0 -->
      <g
         style="fill:#262626;stroke-linecap:butt;stroke-linejoin:round"
         transform="matrix(0.18,0,0,-0.18,74.396563,319.65469)"
         id="g173">
        <use
           height="100%"
           width="100%"
           y="0"
           x="0"
           style="stroke-linecap:butt;stroke-linejoin:round"
           xlink:href="#LiberationSans-30"
           id="use175" />
      </g>
    </g>
  </g>
  <g
     style="stroke-linecap:butt;stroke-linejoin:round"
     id="text_18">
    <!-- $V(x)$ -->
    <defs
       id="defs316">
      <path
         style="stroke-linecap:butt;stroke-linejoin:round"
         inkscape:connector-curvature="0"
         d="m 31,-24.8125 q -5.5625,4.4063 -9.5938,10.0937 -4.0156,5.68755 -6.5937,12.14068 Q 12.25,3.85938 10.9844,10.8906 9.71875,17.9219 9.71875,25 q 0,7.1719 1.26565,14.2031 1.2656,7.0313 3.875,13.5313 2.625,6.5 6.6718,12.1562 Q 25.5938,70.5625 31,74.8125 31,75 31.5,75 l 0.9219,0 q 0.2969,0 0.5312,-0.2656 0.25,-0.2656 0.25,-0.6094 0,-0.4375 -0.1875,-0.6406 Q 28.125,68.7031 24.875,63.2344 21.625,57.7656 19.6406,51.5781 17.6719,45.4062 16.7969,38.7812 15.9219,32.1719 15.9219,25 q 0,-31.78125 16.9843,-48.2969 0.2969,-0.2812 0.2969,-0.8281 0,-0.2344 -0.2656,-0.5469 Q 32.6719,-25 32.4219,-25 L 31.5,-25 q -0.5,0 -0.5,0.1875"
         id="Cmr10-28" />
      <path
         style="stroke-linecap:butt;stroke-linejoin:round"
         inkscape:connector-curvature="0"
         d="m 6.5,-25 q -0.89062,0 -0.89062,0.875 0,0.4375 0.20312,0.6406 Q 22.9062,-6.78125 22.9062,25 22.9062,56.7812 6,73.2969 5.60938,73.5312 5.60938,74.125 q 0,0.3438 0.26562,0.6094 Q 6.15625,75 6.5,75 l 0.92188,0 q 0.29687,0 0.48437,-0.1875 7.18755,-5.6719 11.96875,-13.7813 4.7812,-8.0937 7,-17.2812 2.2344,-9.1719 2.2344,-18.75 0,-7.0781 -1.2032,-13.9375 Q 26.7031,4.20312 24.0938,-2.45312 21.4844,-9.125 17.4844,-14.7656 q -4,-5.6406 -9.57815,-10.0469 Q 7.71875,-25 7.42188,-25 Z"
         id="Cmr10-29" />
      <path
         style="stroke-linecap:butt;stroke-linejoin:round"
         inkscape:connector-curvature="0"
         d="m 22.0156,-1.125 -8,63.7188 q -0.7344,2.2031 -7.5156,2.2031 -0.98438,0 -0.98438,1.3125 Q 5.71875,67.1875 6,67.75 q 0.29688,0.5625 1.17188,0.5625 l 24.42192,0 q 0.5312,0 0.7812,-0.3906 0.25,-0.3907 0.25,-0.9219 -0.3906,-2.2031 -1.3281,-2.2031 -7.8125,0 -8.2969,-2.6875 L 29.5938,9.8125 60.4062,58.9844 q 0.875,1.6562 0.875,2.6406 0,1.75 -1.5937,2.4531 -1.5781,0.7188 -3.6875,0.7188 -1.0156,0 -1.0156,1.3125 0.1875,0.7812 0.3281,1.2187 0.1563,0.4531 0.4531,0.7188 0.2969,0.2656 0.9219,0.2656 l 19.2969,0 q 0.9218,0 0.9218,-1.3125 -0.3906,-2.2031 -1.3124,-2.2031 -7.5313,0 -11.7813,-6.5938 -0.1875,-0.1875 -0.3281,-0.1875 L 26.6094,-1.125 Q 25.875,-2.20312 24.7031,-2.20312 l -1.4062,0 q -1.125,0 -1.2813,1.07812"
         id="Cmmi10-56" />
    </defs>
    <g
       style="fill:#262626;stroke-linecap:butt;stroke-linejoin:round"
       transform="matrix(0,-0.18,-0.18,0,64.429687,192.96)"
       id="g321">
      <use
         height="100%"
         width="100%"
         y="0"
         x="0"
         style="stroke-linecap:butt;stroke-linejoin:round"
         xlink:href="#Cmmi10-56"
         id="use323" />
      <use
         height="100%"
         width="100%"
         y="0"
         x="0"
         style="stroke-linecap:butt;stroke-linejoin:round"
         transform="translate(58.300781,0)"
         xlink:href="#Cmr10-28"
         id="use325" />
      <use
         height="100%"
         width="100%"
         y="0"
         x="0"
         style="stroke-linecap:butt;stroke-linejoin:round"
         transform="translate(97.119141,0)"
         xlink:href="#Cmmi10-78"
         id="use327" />
      <use
         height="100%"
         width="100%"
         y="0"
         x="0"
         style="stroke-linecap:butt;stroke-linejoin:round"
         transform="translate(154.19922,0)"
         xlink:href="#Cmr10-29"
         id="use329" />
    </g>
  </g>
  <g
     id="line2d_33"
     style="stroke-linecap:butt;stroke-linejoin:round">
    <path
       id="path332"
       style="fill:none;stroke:#e41a1c;stroke-width:4;stroke-linecap:round;stroke-linejoin:round"
       d="m 90,315 222.642,0 0.558,-279 55.242,0 0.558,279 278.442,0 0,0"
       clip-path="url(#p7a9eb3f0f5)"
       inkscape:connector-curvature="0" />
  </g>
  <g
     id="patch_3"
     style="stroke-linecap:butt;stroke-linejoin:round">
    <path
       id="path335"
       style="fill:none;stroke:#262626;stroke-width:2;stroke-linecap:square;stroke-linejoin:miter"
       d="m 90,315 558,0"
       inkscape:connector-curvature="0" />
  </g>
  <g
     id="patch_4"
     style="stroke-linecap:butt;stroke-linejoin:round">
    <path
       id="path338"
       style="fill:none;stroke:#262626;stroke-width:2;stroke-linecap:square;stroke-linejoin:miter"
       d="M 90,315 90,36"
       inkscape:connector-curvature="0" />
  </g>
  <defs
     id="defs385">
    <clipPath
       id="p7a9eb3f0f5">
      <rect
         id="rect388"
         y="36.0"
         x="90.0"
         width="558.0"
         height="279.0" />
    </clipPath>
  </defs>
  <flowRoot
     transform="matrix(0.8,0,0,0.8,-7.1760797,56.212625)"
     style="font-style:normal;font-weight:normal;font-size:40px;line-height:125%;font-family:sans-serif;letter-spacing:0px;word-spacing:0px;fill:#0000ff;fill-opacity:1;stroke:none;stroke-width:1px;stroke-linecap:butt;stroke-linejoin:miter;stroke-opacity:1;"
     id="flowRoot5932"
     xml:space="preserve"><flowRegion
       style="stroke-linecap:butt;stroke-linejoin:round"
       id="flowRegion5934"><rect
         style="stroke-linecap:butt;stroke-linejoin:round;fill:#0000ff;fill-opacity:1;"
         y="55.315613"
         x="150.99667"
         height="98.671097"
         width="299.00336"
         id="rect5936" /></flowRegion><flowPara
       style="font-style:normal;font-variant:normal;font-weight:normal;font-stretch:normal;font-family:Lato;-inkscape-font-specification:Lato;stroke-linecap:butt;stroke-linejoin:round;fill:#0000ff;fill-opacity:1;"
       id="flowPara5938">transmitted</flowPara></flowRoot>  <g
     id="line2d_33-4"
     style="stroke-linecap:butt;stroke-linejoin:round;fill:none"
     transform="translate(1.7641189,0.31394958)">
    <path
       id="path332-5"
       style="fill:none;stroke:#e41a1c;stroke-width:4;stroke-linecap:round;stroke-linejoin:round"
       d="m 90,315 222.642,0 0.558,-279 55.242,0 0.558,279 278.442,0 0,0"
       clip-path="url(#p7a9eb3f0f5-0)"
       inkscape:connector-curvature="0" />
  </g>
  <g
     ns0:preamble=""
     ns0:text="$$C_2 e^{-ikx} $$\n"
     word-spacing="normal"
     letter-spacing="normal"
     font-size-adjust="none"
     font-stretch="normal"
     font-weight="normal"
     font-variant="normal"
     font-style="normal"
     stroke-miterlimit="10.433"
     xml:space="preserve"
     transform="matrix(3.4467172,0,0,-3.4467172,-1167.7961,2451.6904)"
     id="content"
     style="font-style:normal;font-variant:normal;font-weight:normal;font-stretch:normal;letter-spacing:normal;word-spacing:normal;text-anchor:start;fill:#0000ff;fill-opacity:1;fill-rule:evenodd;stroke:#0000ff;stroke-linecap:butt;stroke-linejoin:round;stroke-miterlimit:10.43299961;stroke-dasharray:none;stroke-dashoffset:0;stroke-opacity:1"><path
       id="path4816"
       d="m 385.5,664.14 0,0 0,0.01 0,0 0,0 0,0.01 0,0 0,0 0,0.01 0,0 -0.01,0.01 0,0 0,0 0,0.01 0,0 -0.01,0.01 0,0 0,0 -0.01,0.01 0,0 0,0 -0.01,0.01 0,0 -0.01,0 0,0.01 -0.01,0 0,0 0,0 -0.01,0 0,0 0,0 -0.01,0 0,0.01 0,0 -0.01,0 0,0 0,0 -0.01,0 0,0 -0.01,0 c -0.03,0 -0.04,-0.01 -0.15,-0.12 l -0.69,-0.77 c -0.09,0.14 -0.55,0.89 -1.65,0.89 -2.22,0 -4.46,-2.2 -4.46,-4.5 0,-1.64 1.17,-2.72 2.7,-2.72 0.86,0 1.62,0.39 2.14,0.85 0.93,0.81 1.1,1.72 1.1,1.75 0,0.1 -0.1,0.1 -0.12,0.1 -0.06,0 -0.11,-0.02 -0.13,-0.1 -0.09,-0.29 -0.32,-0.99 -1.01,-1.57 -0.68,-0.56 -1.31,-0.73 -1.83,-0.73 -0.89,0 -1.95,0.52 -1.95,2.07 0,0.57 0.21,2.18 1.21,3.34 0.6,0.7 1.54,1.2 2.43,1.2 1.01,0 1.6,-0.77 1.6,-1.92 0,-0.39 -0.03,-0.4 -0.03,-0.5 0,-0.1 0.11,-0.1 0.15,-0.1 0.13,0 0.13,0.02 0.18,0.2 z"
       inkscape:connector-curvature="0"
       style="fill:#0000ff;stroke-width:0;stroke-linecap:butt;stroke-linejoin:round;stroke:#0000ff;stroke-opacity:1;fill-opacity:1" /><path
       id="path4818"
       d="m 388.58,657.01 -0.24,0 c -0.02,-0.16 -0.09,-0.57 -0.18,-0.64 -0.06,-0.04 -0.59,-0.04 -0.69,-0.04 l -1.28,0 c 0.73,0.65 0.97,0.84 1.39,1.17 0.52,0.41 1,0.84 1,1.5 0,0.84 -0.74,1.36 -1.63,1.36 -0.87,0 -1.45,-0.61 -1.45,-1.25 0,-0.35 0.3,-0.39 0.37,-0.39 0.17,0 0.37,0.12 0.37,0.37 0,0.13 -0.05,0.37 -0.41,0.37 0.21,0.5 0.69,0.65 1.01,0.65 0.7,0 1.06,-0.54 1.06,-1.11 0,-0.6 -0.43,-1.08 -0.65,-1.33 l -1.68,-1.66 c -0.07,-0.06 -0.07,-0.07 -0.07,-0.27 l 2.87,0 z"
       inkscape:connector-curvature="0"
       style="fill:#0000ff;stroke-width:0;stroke-linecap:butt;stroke-linejoin:round;stroke:#0000ff;stroke-opacity:1;fill-opacity:1" /><path
       id="path4820"
       d="m 391.39,659.53 0.03,0 0.03,0 0.03,0 0.04,0 0.04,0 0.04,0 0.04,0 0.04,0.01 0.05,0 0.04,0 0.05,0 0.05,0.01 0.05,0 0.05,0.01 0.1,0.01 0.11,0.01 0.11,0.01 0.11,0.02 0.11,0.02 0.1,0.03 0.06,0.01 0.05,0.02 0.05,0.01 0.05,0.02 0.05,0.02 0.04,0.02 c 0.7,0.3 0.75,0.88 0.75,1.02 0,0.44 -0.38,0.85 -1.06,0.85 l 0,-0.22 c 0.46,0 0.73,-0.29 0.73,-0.63 0,-1.03 -1.59,-1.03 -2,-1.03 l -0.41,0 c 0.39,1.51 1.42,1.66 1.68,1.66 l 0,0.22 c -1.11,0 -2.61,-0.97 -2.61,-2.71 0,-1.01 0.59,-1.79 1.56,-1.79 1.42,0 2.26,1.05 2.26,1.17 0,0.06 -0.06,0.13 -0.12,0.13 -0.05,0 -0.07,-0.02 -0.13,-0.1 -0.79,-0.99 -1.87,-0.99 -1.99,-0.99 -0.77,0 -0.87,0.84 -0.87,1.16 0,0.12 0.01,0.42 0.16,1.03 z"
       inkscape:connector-curvature="0"
       style="fill:#0000ff;stroke-width:0;stroke-linecap:butt;stroke-linejoin:round;stroke:#0000ff;stroke-opacity:1;fill-opacity:1" /><path
       id="path4822"
       d="m 399.35,662.92 0.01,0 0.01,0 0.01,0 0.02,0 0.02,0 0.01,0 0.01,0 0.01,0 0.02,0.01 0.01,0 0.01,0 0.01,0 0.01,0 0.01,0.01 0.01,0 0.01,0.01 0.01,0 0.01,0 0.01,0.01 0.01,0.01 0.01,0 0.01,0.01 0,0.01 0,0 0.01,0 0,0.01 0,0 0,0.01 0.01,0 0,0.01 0,0.01 0,0 0,0.01 0.01,0 0,0.01 0,0.01 0,0 0,0.01 0,0.01 0,0.01 c 0,0.17 -0.16,0.17 -0.28,0.17 l -4.15,0 c -0.11,0 -0.28,0 -0.28,-0.17 0,-0.17 0.16,-0.17 0.28,-0.17 z"
       inkscape:connector-curvature="0"
       style="fill:#0000ff;stroke-width:0;stroke-linecap:butt;stroke-linejoin:round;stroke:#0000ff;stroke-opacity:1;fill-opacity:1" /><path
       id="path4824"
       d="m 402.65,665.7 0,0.01 0,0.01 0,0.01 0,0.01 0,0.01 -0.01,0.01 0,0.01 0,0.01 -0.01,0.01 0,0.02 -0.01,0.01 0,0.01 -0.01,0.01 -0.01,0.01 -0.01,0.01 0,0.01 -0.01,0.01 -0.01,0.01 -0.01,0.01 -0.01,0 -0.01,0.01 -0.02,0.01 -0.01,0.01 -0.01,0 -0.01,0.01 -0.02,0 -0.01,0.01 -0.02,0 -0.01,0.01 -0.02,0 -0.02,0 -0.02,0 c -0.18,0 -0.39,-0.18 -0.39,-0.38 0,-0.12 0.1,-0.27 0.28,-0.27 0.2,0 0.39,0.2 0.39,0.39 z"
       inkscape:connector-curvature="0"
       style="fill:#0000ff;stroke-width:0;stroke-linecap:butt;stroke-linejoin:round;stroke:#0000ff;stroke-opacity:1;fill-opacity:1" /><path
       id="path4826"
       d="m 401.23,662.16 0,-0.01 -0.01,-0.02 -0.01,-0.03 -0.01,-0.02 0,-0.02 -0.01,-0.02 0,-0.01 0,-0.02 -0.01,-0.02 0,-0.02 -0.01,-0.02 0,-0.01 0,-0.01 0,-0.01 0,-0.01 0,-0.01 0,-0.01 0,-0.01 0,-0.01 c 0,-0.33 0.28,-0.59 0.66,-0.59 0.7,0 1,0.96 1,1.06 0,0.09 -0.09,0.09 -0.11,0.09 -0.1,0 -0.1,-0.04 -0.13,-0.11 -0.16,-0.56 -0.47,-0.85 -0.74,-0.85 -0.14,0 -0.17,0.1 -0.17,0.25 0,0.16 0.05,0.29 0.11,0.44 0.07,0.19 0.14,0.38 0.22,0.56 0.07,0.17 0.32,0.8 0.34,0.88 0.02,0.07 0.04,0.16 0.04,0.22 0,0.33 -0.27,0.6 -0.66,0.6 -0.69,0 -1.01,-0.95 -1.01,-1.07 0,-0.09 0.1,-0.09 0.12,-0.09 0.1,0 0.11,0.04 0.13,0.11 0.18,0.6 0.48,0.85 0.74,0.85 0.11,0 0.18,-0.06 0.18,-0.24 0,-0.16 -0.04,-0.27 -0.22,-0.7 z"
       inkscape:connector-curvature="0"
       style="fill:#0000ff;stroke-width:0;stroke-linecap:butt;stroke-linejoin:round;stroke:#0000ff;stroke-opacity:1;fill-opacity:1" /><path
       id="path4828"
       d="m 405.39,665.97 0.01,0 0,0 0,0 0,0 0,0 0,0 0,0 0,0 0,0.01 0,0 0,0 0,0.01 0,0 0,0.01 0.01,0 0,0.01 0,0 0,0.01 0,0 0,0.01 0,0.01 0.01,0 0,0.01 0,0 0,0.01 0,0 0,0 0,0.01 0,0 0,0 0,0 0,0 0,0 0,0 0,0 0,0.01 0,0 0,0 0,0 0,0 c 0,0.03 -0.03,0.09 -0.11,0.09 -0.14,0 -0.72,-0.05 -0.89,-0.07 -0.06,0 -0.15,-0.01 -0.15,-0.15 0,-0.1 0.09,-0.1 0.18,-0.1 0.33,0 0.33,-0.05 0.33,-0.11 0,-0.04 -0.01,-0.09 -0.03,-0.15 l -0.98,-3.93 c -0.03,-0.13 -0.03,-0.14 -0.03,-0.16 0,-0.1 0.08,-0.22 0.23,-0.22 0.19,0 0.28,0.14 0.32,0.29 0.02,0.03 0.32,1.25 0.35,1.35 0.49,-0.05 0.89,-0.21 0.89,-0.57 0,-0.03 0,-0.07 -0.02,-0.14 -0.03,-0.1 -0.03,-0.14 -0.03,-0.21 0,-0.5 0.41,-0.72 0.74,-0.72 0.68,0 0.89,1.06 0.89,1.06 0,0.09 -0.09,0.09 -0.11,0.09 -0.1,0 -0.11,-0.03 -0.14,-0.16 -0.09,-0.3 -0.27,-0.8 -0.62,-0.8 -0.18,0 -0.24,0.18 -0.24,0.37 0,0.11 0,0.13 0.04,0.31 0.01,0.02 0.04,0.14 0.04,0.21 0,0.62 -0.84,0.72 -1.13,0.74 0.2,0.13 0.46,0.36 0.58,0.46 0.35,0.33 0.7,0.66 1.09,0.66 0.08,0 0.18,-0.02 0.23,-0.09 -0.3,-0.05 -0.36,-0.29 -0.36,-0.39 0,-0.15 0.12,-0.26 0.28,-0.26 0.18,0 0.39,0.16 0.39,0.45 0,0.23 -0.16,0.49 -0.53,0.49 -0.4,0 -0.76,-0.29 -1.12,-0.62 -0.29,-0.27 -0.52,-0.49 -0.81,-0.61 z"
       inkscape:connector-curvature="0"
       style="fill:#0000ff;stroke-width:0;stroke-linecap:butt;stroke-linejoin:round;stroke:#0000ff;stroke-opacity:1;fill-opacity:1" /><path
       id="path4830"
       d="m 409.35,662.09 -0.01,-0.03 0,-0.02 -0.01,-0.02 -0.01,-0.03 -0.01,-0.02 -0.01,-0.03 -0.02,-0.02 -0.01,-0.03 -0.01,-0.02 -0.02,-0.03 -0.02,-0.03 -0.01,-0.02 -0.02,-0.03 -0.02,-0.02 -0.02,-0.03 -0.02,-0.02 -0.02,-0.02 -0.02,-0.02 -0.02,-0.02 -0.03,-0.02 -0.02,-0.02 -0.03,-0.02 -0.02,-0.02 -0.03,-0.01 -0.03,-0.02 -0.03,-0.01 -0.03,-0.01 -0.03,-0.01 -0.03,-0.01 -0.03,0 -0.03,0 -0.03,-0.01 c -0.02,0 -0.23,0 -0.38,0.1 0.29,0.09 0.31,0.34 0.31,0.38 0,0.16 -0.12,0.26 -0.28,0.26 -0.2,0 -0.4,-0.17 -0.4,-0.42 0,-0.35 0.39,-0.51 0.73,-0.51 0.32,0 0.61,0.2 0.78,0.49 0.17,-0.36 0.55,-0.49 0.83,-0.49 0.8,0 1.23,0.87 1.23,1.06 0,0.09 -0.09,0.09 -0.11,0.09 -0.1,0 -0.11,-0.03 -0.14,-0.11 -0.14,-0.48 -0.56,-0.85 -0.95,-0.85 -0.28,0 -0.43,0.19 -0.43,0.46 0,0.18 0.17,0.81 0.37,1.58 0.14,0.54 0.45,0.71 0.68,0.71 0.01,0 0.23,0 0.38,-0.1 -0.23,-0.06 -0.31,-0.25 -0.31,-0.38 0,-0.15 0.12,-0.26 0.28,-0.26 0.16,0 0.39,0.14 0.39,0.43 0,0.39 -0.45,0.51 -0.73,0.51 -0.34,0 -0.62,-0.23 -0.78,-0.5 -0.12,0.29 -0.44,0.5 -0.83,0.5 -0.78,0 -1.23,-0.86 -1.23,-1.07 0,-0.09 0.1,-0.09 0.12,-0.09 0.09,0 0.1,0.03 0.13,0.12 0.18,0.54 0.62,0.84 0.96,0.84 0.23,0 0.41,-0.12 0.41,-0.46 0,-0.14 -0.08,-0.48 -0.14,-0.72 z"
       inkscape:connector-curvature="0"
       style="fill:#0000ff;stroke-width:0;stroke-linecap:butt;stroke-linejoin:round;stroke:#0000ff;stroke-opacity:1;fill-opacity:1" /></g>  <path
     style="fill:none;fill-rule:evenodd;stroke:#0000ff;stroke-width:3.2;stroke-linecap:butt;stroke-linejoin:round;stroke-opacity:1;stroke-miterlimit:4;stroke-dasharray:none;marker-end:url(#Arrow1Lend)"
     d="M 260.7309,226.04651 C 151.89369,224.8505 151.89369,224.8505 151.89369,224.8505"
     id="path4919"
     inkscape:connector-curvature="0" />
  <path
     style="fill:#ffff00;fill-rule:evenodd;stroke:#ffff00;stroke-width:3.20000005;stroke-linecap:butt;stroke-linejoin:round;stroke-miterlimit:4;stroke-dasharray:none;stroke-opacity:1;marker-end:url(#Arrow1Lend-6);fill-opacity:1"
     d="M 495.84052,173.32204 C 387.00331,172.12603 387.00331,172.12603 387.00331,172.12603"
     id="path4919-5"
     inkscape:connector-curvature="0" />
  <path
     style="fill:none;fill-rule:evenodd;stroke:#00ff00;stroke-width:3.20000005;stroke-linecap:butt;stroke-linejoin:round;stroke-miterlimit:4;stroke-dasharray:none;stroke-opacity:1;marker-end:url(#Arrow1Lend-6-8)"
     d="m 396.77777,264.17377 c 108.83721,-1.19601 108.83721,-1.19601 108.83721,-1.19601"
     id="path4919-5-5"
     inkscape:connector-curvature="0" />
  <flowRoot
     style="font-style:normal;font-weight:normal;font-size:32px;line-height:125%;font-family:sans-serif;letter-spacing:0px;word-spacing:0px;fill:#e6ff00;fill-opacity:1;stroke:none;stroke-width:1px;stroke-linecap:butt;stroke-linejoin:miter;stroke-opacity:1;"
     id="flowRoot5932-2"
     xml:space="preserve"
     transform="translate(406.94328,90.296233)"><flowRegion
       style="stroke-linecap:butt;stroke-linejoin:round"
       id="flowRegion5934-0"><rect
         style="fill:#e6ff00;fill-opacity:1;stroke-linecap:butt;stroke-linejoin:round;"
         y="-9.3326349"
         x="-0.68753314"
         height="78.936874"
         width="239.20268"
         id="rect5936-7" /></flowRegion><flowPara
       style="font-style:normal;font-variant:normal;font-weight:normal;font-stretch:normal;font-family:Lato;-inkscape-font-specification:Lato;fill:#e6ff00;fill-opacity:1;stroke-linecap:butt;stroke-linejoin:round;"
       id="flowPara5938-0">incoming</flowPara></flowRoot>  <flowRoot
     style="font-style:normal;font-weight:normal;font-size:32px;line-height:125%;font-family:sans-serif;letter-spacing:0px;word-spacing:0px;fill:#e6ff00;fill-opacity:1;stroke:none;stroke-width:1px;stroke-linecap:butt;stroke-linejoin:miter;stroke-opacity:1"
     id="flowRoot5932-2-6"
     xml:space="preserve"
     transform="translate(405.57303,202.31716)"><flowRegion
       style="stroke-linecap:butt;stroke-linejoin:round"
       id="flowRegion5934-0-2"><rect
         style="fill:#e6ff00;fill-opacity:1;stroke-linecap:butt;stroke-linejoin:round"
         y="-9.5566044"
         x="-1.8080332"
         height="78.936874"
         width="239.20268"
         id="rect5936-7-6" /></flowRegion><flowPara
       style="font-style:normal;font-variant:normal;font-weight:normal;font-stretch:normal;font-family:Lato;-inkscape-font-specification:Lato;fill:#00ff1a;fill-opacity:1;stroke-linecap:butt;stroke-linejoin:round"
       id="flowPara5938-0-2">reflected</flowPara></flowRoot>  <g
     style="font-style:normal;font-variant:normal;font-weight:normal;font-stretch:normal;letter-spacing:normal;word-spacing:normal;text-anchor:start;fill:#eeff00;fill-opacity:1;fill-rule:evenodd;stroke:#000000;stroke-linecap:butt;stroke-linejoin:round;stroke-miterlimit:10.43299961;stroke-dasharray:none;stroke-dashoffset:0;stroke-opacity:1"
     id="g6715"
     transform="matrix(4.2115149,0,0,-4.2115149,-1080.3499,2941.6547)"
     xml:space="preserve"
     stroke-miterlimit="10.433"
     font-style="normal"
     font-variant="normal"
     font-weight="normal"
     font-stretch="normal"
     font-size-adjust="none"
     letter-spacing="normal"
     word-spacing="normal"
     ns0:text="$$ C_0 e^{-ikx} $$"
     ns0:preamble=""><path
       style="fill:#eeff00;stroke-width:0;stroke-linecap:butt;stroke-linejoin:round;stroke:#000000;stroke-opacity:1;fill-opacity:1"
       inkscape:connector-curvature="0"
       d="m 385.5,664.14 0,0 0,0.01 0,0 0,0 0,0.01 0,0 0,0 0,0.01 0,0 -0.01,0.01 0,0 0,0 0,0.01 0,0 -0.01,0.01 0,0 0,0 -0.01,0.01 0,0 0,0 -0.01,0.01 0,0 -0.01,0 0,0.01 -0.01,0 0,0 0,0 -0.01,0 0,0 0,0 -0.01,0 0,0.01 0,0 -0.01,0 0,0 0,0 -0.01,0 0,0 -0.01,0 c -0.03,0 -0.04,-0.01 -0.15,-0.12 l -0.69,-0.77 c -0.09,0.14 -0.55,0.89 -1.65,0.89 -2.22,0 -4.46,-2.2 -4.46,-4.5 0,-1.64 1.17,-2.72 2.7,-2.72 0.86,0 1.62,0.39 2.14,0.85 0.93,0.81 1.1,1.72 1.1,1.75 0,0.1 -0.1,0.1 -0.12,0.1 -0.06,0 -0.11,-0.02 -0.13,-0.1 -0.09,-0.29 -0.32,-0.99 -1.01,-1.57 -0.68,-0.56 -1.31,-0.73 -1.83,-0.73 -0.89,0 -1.95,0.52 -1.95,2.07 0,0.57 0.21,2.18 1.21,3.34 0.6,0.7 1.54,1.2 2.43,1.2 1.01,0 1.6,-0.77 1.6,-1.92 0,-0.39 -0.03,-0.4 -0.03,-0.5 0,-0.1 0.11,-0.1 0.15,-0.1 0.13,0 0.13,0.02 0.18,0.2 z"
       id="path6717" /><path
       style="fill:#eeff00;stroke-width:0;stroke-linecap:butt;stroke-linejoin:round;stroke:#000000;stroke-opacity:1;fill-opacity:1"
       inkscape:connector-curvature="0"
       d="m 388.65,657.96 0,0.14 0,0.14 -0.01,0.13 0,0.12 -0.02,0.13 -0.01,0.12 -0.02,0.11 -0.02,0.11 -0.03,0.11 -0.03,0.11 -0.03,0.1 -0.04,0.1 -0.04,0.1 -0.05,0.09 -0.05,0.1 -0.03,0.04 -0.03,0.05 c -0.21,0.32 -0.64,0.6 -1.2,0.6 l 0,-0.2 c 0.38,0 0.74,-0.23 0.86,-0.63 0.11,-0.37 0.12,-0.87 0.12,-1.48 0,-0.52 0,-1.03 -0.09,-1.47 -0.14,-0.63 -0.61,-0.78 -0.89,-0.78 l 0,0 c -0.32,0 -0.75,0.18 -0.89,0.75 -0.09,0.42 -0.09,0.98 -0.09,1.5 0,0.51 0,1.04 0.1,1.42 0.15,0.55 0.59,0.69 0.88,0.69 l 0,0.2 c -1.62,0 -1.62,-1.9 -1.62,-2.4 0,-0.5 0,-2.36 1.62,-2.36 1.61,0 1.61,1.86 1.61,2.36 z"
       id="path6719" /><path
       style="fill:#eeff00;stroke-width:0;stroke-linecap:butt;stroke-linejoin:round;stroke:#000000;stroke-opacity:1;fill-opacity:1"
       inkscape:connector-curvature="0"
       d="m 391.39,659.53 0.03,0 0.03,0 0.03,0 0.04,0 0.04,0 0.04,0 0.04,0 0.04,0.01 0.05,0 0.04,0 0.05,0 0.05,0.01 0.05,0 0.05,0.01 0.1,0.01 0.11,0.01 0.11,0.01 0.11,0.02 0.11,0.02 0.1,0.03 0.06,0.01 0.05,0.02 0.05,0.01 0.05,0.02 0.05,0.02 0.04,0.02 c 0.7,0.3 0.75,0.88 0.75,1.02 0,0.44 -0.38,0.85 -1.06,0.85 l 0,-0.22 c 0.46,0 0.73,-0.29 0.73,-0.63 0,-1.03 -1.59,-1.03 -2,-1.03 l -0.41,0 c 0.39,1.51 1.42,1.66 1.68,1.66 l 0,0.22 c -1.11,0 -2.61,-0.97 -2.61,-2.71 0,-1.01 0.59,-1.79 1.56,-1.79 1.42,0 2.26,1.05 2.26,1.17 0,0.06 -0.06,0.13 -0.12,0.13 -0.05,0 -0.07,-0.02 -0.13,-0.1 -0.79,-0.99 -1.87,-0.99 -1.99,-0.99 -0.77,0 -0.87,0.84 -0.87,1.16 0,0.12 0.01,0.42 0.16,1.03 z"
       id="path6721" /><path
       style="fill:#eeff00;stroke-width:0;stroke-linecap:butt;stroke-linejoin:round;stroke:#000000;stroke-opacity:1;fill-opacity:1"
       inkscape:connector-curvature="0"
       d="m 399.35,662.92 0.01,0 0.01,0 0.01,0 0.02,0 0.02,0 0.01,0 0.01,0 0.01,0 0.02,0.01 0.01,0 0.01,0 0.01,0 0.01,0 0.01,0.01 0.01,0 0.01,0.01 0.01,0 0.01,0 0.01,0.01 0.01,0.01 0.01,0 0.01,0.01 0,0.01 0,0 0.01,0 0,0.01 0,0 0,0.01 0.01,0 0,0.01 0,0.01 0,0 0,0.01 0.01,0 0,0.01 0,0.01 0,0 0,0.01 0,0.01 0,0.01 c 0,0.17 -0.16,0.17 -0.28,0.17 l -4.15,0 c -0.11,0 -0.28,0 -0.28,-0.17 0,-0.17 0.16,-0.17 0.28,-0.17 z"
       id="path6723" /><path
       style="fill:#eeff00;stroke-width:0;stroke-linecap:butt;stroke-linejoin:round;stroke:#000000;stroke-opacity:1;fill-opacity:1"
       inkscape:connector-curvature="0"
       d="m 402.65,665.7 0,0.01 0,0.01 0,0.01 0,0.01 0,0.01 -0.01,0.01 0,0.01 0,0.01 -0.01,0.01 0,0.02 -0.01,0.01 0,0.01 -0.01,0.01 -0.01,0.01 -0.01,0.01 0,0.01 -0.01,0.01 -0.01,0.01 -0.01,0.01 -0.01,0 -0.01,0.01 -0.02,0.01 -0.01,0.01 -0.01,0 -0.01,0.01 -0.02,0 -0.01,0.01 -0.02,0 -0.01,0.01 -0.02,0 -0.02,0 -0.02,0 c -0.18,0 -0.39,-0.18 -0.39,-0.38 0,-0.12 0.1,-0.27 0.28,-0.27 0.2,0 0.39,0.2 0.39,0.39 z"
       id="path6725" /><path
       style="fill:#eeff00;stroke-width:0;stroke-linecap:butt;stroke-linejoin:round;stroke:#000000;stroke-opacity:1;fill-opacity:1"
       inkscape:connector-curvature="0"
       d="m 401.23,662.16 0,-0.01 -0.01,-0.02 -0.01,-0.03 -0.01,-0.02 0,-0.02 -0.01,-0.02 0,-0.01 0,-0.02 -0.01,-0.02 0,-0.02 -0.01,-0.02 0,-0.01 0,-0.01 0,-0.01 0,-0.01 0,-0.01 0,-0.01 0,-0.01 0,-0.01 c 0,-0.33 0.28,-0.59 0.66,-0.59 0.7,0 1,0.96 1,1.06 0,0.09 -0.09,0.09 -0.11,0.09 -0.1,0 -0.1,-0.04 -0.13,-0.11 -0.16,-0.56 -0.47,-0.85 -0.74,-0.85 -0.14,0 -0.17,0.1 -0.17,0.25 0,0.16 0.05,0.29 0.11,0.44 0.07,0.19 0.14,0.38 0.22,0.56 0.07,0.17 0.32,0.8 0.34,0.88 0.02,0.07 0.04,0.16 0.04,0.22 0,0.33 -0.27,0.6 -0.66,0.6 -0.69,0 -1.01,-0.95 -1.01,-1.07 0,-0.09 0.1,-0.09 0.12,-0.09 0.1,0 0.11,0.04 0.13,0.11 0.18,0.6 0.48,0.85 0.74,0.85 0.11,0 0.18,-0.06 0.18,-0.24 0,-0.16 -0.04,-0.27 -0.22,-0.7 z"
       id="path6727" /><path
       style="fill:#eeff00;stroke-width:0;stroke-linecap:butt;stroke-linejoin:round;stroke:#000000;stroke-opacity:1;fill-opacity:1"
       inkscape:connector-curvature="0"
       d="m 405.39,665.97 0.01,0 0,0 0,0 0,0 0,0 0,0 0,0 0,0 0,0.01 0,0 0,0 0,0.01 0,0 0,0.01 0.01,0 0,0.01 0,0 0,0.01 0,0 0,0.01 0,0.01 0.01,0 0,0.01 0,0 0,0.01 0,0 0,0 0,0.01 0,0 0,0 0,0 0,0 0,0 0,0 0,0 0,0.01 0,0 0,0 0,0 0,0 c 0,0.03 -0.03,0.09 -0.11,0.09 -0.14,0 -0.72,-0.05 -0.89,-0.07 -0.06,0 -0.15,-0.01 -0.15,-0.15 0,-0.1 0.09,-0.1 0.18,-0.1 0.33,0 0.33,-0.05 0.33,-0.11 0,-0.04 -0.01,-0.09 -0.03,-0.15 l -0.98,-3.93 c -0.03,-0.13 -0.03,-0.14 -0.03,-0.16 0,-0.1 0.08,-0.22 0.23,-0.22 0.19,0 0.28,0.14 0.32,0.29 0.02,0.03 0.32,1.25 0.35,1.35 0.49,-0.05 0.89,-0.21 0.89,-0.57 0,-0.03 0,-0.07 -0.02,-0.14 -0.03,-0.1 -0.03,-0.14 -0.03,-0.21 0,-0.5 0.41,-0.72 0.74,-0.72 0.68,0 0.89,1.06 0.89,1.06 0,0.09 -0.09,0.09 -0.11,0.09 -0.1,0 -0.11,-0.03 -0.14,-0.16 -0.09,-0.3 -0.27,-0.8 -0.62,-0.8 -0.18,0 -0.24,0.18 -0.24,0.37 0,0.11 0,0.13 0.04,0.31 0.01,0.02 0.04,0.14 0.04,0.21 0,0.62 -0.84,0.72 -1.13,0.74 0.2,0.13 0.46,0.36 0.58,0.46 0.35,0.33 0.7,0.66 1.09,0.66 0.08,0 0.18,-0.02 0.23,-0.09 -0.3,-0.05 -0.36,-0.29 -0.36,-0.39 0,-0.15 0.12,-0.26 0.28,-0.26 0.18,0 0.39,0.16 0.39,0.45 0,0.23 -0.16,0.49 -0.53,0.49 -0.4,0 -0.76,-0.29 -1.12,-0.62 -0.29,-0.27 -0.52,-0.49 -0.81,-0.61 z"
       id="path6729" /><path
       style="fill:#eeff00;stroke-width:0;stroke-linecap:butt;stroke-linejoin:round;stroke:#000000;stroke-opacity:1;fill-opacity:1"
       inkscape:connector-curvature="0"
       d="m 409.35,662.09 -0.01,-0.03 0,-0.02 -0.01,-0.02 -0.01,-0.03 -0.01,-0.02 -0.01,-0.03 -0.02,-0.02 -0.01,-0.03 -0.01,-0.02 -0.02,-0.03 -0.02,-0.03 -0.01,-0.02 -0.02,-0.03 -0.02,-0.02 -0.02,-0.03 -0.02,-0.02 -0.02,-0.02 -0.02,-0.02 -0.02,-0.02 -0.03,-0.02 -0.02,-0.02 -0.03,-0.02 -0.02,-0.02 -0.03,-0.01 -0.03,-0.02 -0.03,-0.01 -0.03,-0.01 -0.03,-0.01 -0.03,-0.01 -0.03,0 -0.03,0 -0.03,-0.01 c -0.02,0 -0.23,0 -0.38,0.1 0.29,0.09 0.31,0.34 0.31,0.38 0,0.16 -0.12,0.26 -0.28,0.26 -0.2,0 -0.4,-0.17 -0.4,-0.42 0,-0.35 0.39,-0.51 0.73,-0.51 0.32,0 0.61,0.2 0.78,0.49 0.17,-0.36 0.55,-0.49 0.83,-0.49 0.8,0 1.23,0.87 1.23,1.06 0,0.09 -0.09,0.09 -0.11,0.09 -0.1,0 -0.11,-0.03 -0.14,-0.11 -0.14,-0.48 -0.56,-0.85 -0.95,-0.85 -0.28,0 -0.43,0.19 -0.43,0.46 0,0.18 0.17,0.81 0.37,1.58 0.14,0.54 0.45,0.71 0.68,0.71 0.01,0 0.23,0 0.38,-0.1 -0.23,-0.06 -0.31,-0.25 -0.31,-0.38 0,-0.15 0.12,-0.26 0.28,-0.26 0.16,0 0.39,0.14 0.39,0.43 0,0.39 -0.45,0.51 -0.73,0.51 -0.34,0 -0.62,-0.23 -0.78,-0.5 -0.12,0.29 -0.44,0.5 -0.83,0.5 -0.78,0 -1.23,-0.86 -1.23,-1.07 0,-0.09 0.1,-0.09 0.12,-0.09 0.09,0 0.1,0.03 0.13,0.12 0.18,0.54 0.62,0.84 0.96,0.84 0.23,0 0.41,-0.12 0.41,-0.46 0,-0.14 -0.08,-0.48 -0.14,-0.72 z"
       id="path6731" /></g>  <g
     ns0:preamble=""
     ns0:text="$$ C_1 e^{ikx} $$"
     word-spacing="normal"
     letter-spacing="normal"
     font-size-adjust="none"
     font-stretch="normal"
     font-weight="normal"
     font-variant="normal"
     font-style="normal"
     stroke-miterlimit="10.433"
     xml:space="preserve"
     transform="matrix(4.1942678,0,0,-4.1942678,-1084.8928,3031.2377)"
     id="g6961"
     style="font-style:normal;font-variant:normal;font-weight:normal;font-stretch:normal;letter-spacing:normal;word-spacing:normal;text-anchor:start;fill:#00ff22;fill-opacity:1;fill-rule:evenodd;stroke:#000000;stroke-linecap:butt;stroke-linejoin:round;stroke-miterlimit:10.43299961;stroke-dasharray:none;stroke-dashoffset:0;stroke-opacity:1"><path
       id="path6963"
       d="m 388.61,664.14 0,0 0,0.01 0,0 0,0 0,0.01 0,0 0,0 0,0.01 0,0 0,0.01 0,0 -0.01,0 0,0.01 0,0 0,0.01 -0.01,0 0,0 0,0.01 -0.01,0 0,0 0,0.01 -0.01,0 0,0 -0.01,0.01 0,0 -0.01,0 0,0 0,0 -0.01,0 0,0 0,0 -0.01,0.01 0,0 0,0 -0.01,0 0,0 -0.01,0 0,0 0,0 c -0.03,0 -0.04,-0.01 -0.15,-0.12 l -0.7,-0.77 c -0.09,0.14 -0.55,0.89 -1.65,0.89 -2.22,0 -4.46,-2.2 -4.46,-4.5 0,-1.64 1.18,-2.72 2.7,-2.72 0.86,0 1.62,0.39 2.15,0.85 0.92,0.81 1.09,1.72 1.09,1.75 0,0.1 -0.1,0.1 -0.12,0.1 -0.06,0 -0.11,-0.02 -0.13,-0.1 -0.09,-0.29 -0.32,-0.99 -1,-1.57 -0.69,-0.56 -1.32,-0.73 -1.83,-0.73 -0.9,0 -1.95,0.52 -1.95,2.07 0,0.57 0.21,2.18 1.2,3.34 0.61,0.7 1.54,1.2 2.43,1.2 1.01,0 1.6,-0.77 1.6,-1.92 0,-0.39 -0.03,-0.4 -0.03,-0.5 0,-0.1 0.11,-0.1 0.15,-0.1 0.13,0 0.13,0.02 0.18,0.2 z"
       inkscape:connector-curvature="0"
       style="fill:#00ff22;stroke-width:0;stroke-linecap:butt;stroke-linejoin:round;fill-opacity:1" /><path
       id="path6965"
       d="m 390.51,660.16 0,0.01 0,0.01 0,0.01 0,0.01 0,0 0,0.01 0,0.01 0,0.01 0,0 0,0.01 0,0.01 0,0 -0.01,0.01 0,0 0,0.01 0,0 0,0.01 0,0 0,0.01 0,0.01 -0.01,0.01 0,0 0,0.01 -0.01,0.01 0,0 -0.01,0.01 -0.01,0 0,0 -0.01,0.01 -0.01,0 -0.01,0 -0.01,0 0,0 -0.01,0 0,0 -0.01,0.01 0,0 -0.01,0 -0.01,0 0,0 -0.01,0 -0.01,0 0,0 -0.01,0 -0.01,0 -0.01,0 0,0 -0.01,0 -0.01,0 -0.01,0 c -0.45,-0.44 -1.08,-0.45 -1.37,-0.45 l 0,-0.25 c 0.17,0 0.63,0 1.01,0.2 l 0,-3.55 c 0,-0.23 0,-0.32 -0.69,-0.32 l -0.27,0 0,-0.25 c 0.13,0.01 0.98,0.03 1.24,0.03 0.22,0 1.1,-0.02 1.25,-0.03 l 0,0.25 -0.27,0 c -0.69,0 -0.69,0.09 -0.69,0.32 z"
       inkscape:connector-curvature="0"
       style="fill:#00ff22;stroke-width:0;stroke-linecap:butt;stroke-linejoin:round;fill-opacity:1" /><path
       id="path6967"
       d="m 394.5,659.53 0.03,0 0.03,0 0.04,0 0.03,0 0.04,0 0.04,0 0.04,0 0.04,0.01 0.05,0 0.04,0 0.05,0 0.05,0.01 0.05,0 0.05,0.01 0.11,0.01 0.1,0.01 0.11,0.01 0.11,0.02 0.11,0.02 0.11,0.03 0.05,0.01 0.05,0.02 0.05,0.01 0.05,0.02 0.05,0.02 0.05,0.02 c 0.69,0.3 0.74,0.88 0.74,1.02 0,0.44 -0.38,0.85 -1.06,0.85 l 0,-0.22 c 0.47,0 0.74,-0.29 0.74,-0.63 0,-1.03 -1.6,-1.03 -2,-1.03 l -0.41,0 c 0.38,1.51 1.41,1.66 1.67,1.66 l 0,0.22 c -1.11,0 -2.61,-0.97 -2.61,-2.71 0,-1.01 0.59,-1.79 1.56,-1.79 1.43,0 2.26,1.05 2.26,1.17 0,0.06 -0.06,0.13 -0.12,0.13 -0.05,0 -0.07,-0.02 -0.13,-0.1 -0.78,-0.99 -1.87,-0.99 -1.99,-0.99 -0.77,0 -0.86,0.84 -0.86,1.16 0,0.12 0.01,0.42 0.16,1.03 z"
       inkscape:connector-curvature="0"
       style="fill:#00ff22;stroke-width:0;stroke-linecap:butt;stroke-linejoin:round;fill-opacity:1" /><path
       id="path6969"
       d="m 399.54,665.7 0,0.01 0,0.01 0,0.01 0,0.01 -0.01,0.01 0,0.01 0,0.01 -0.01,0.01 0,0.01 -0.01,0.02 0,0.01 -0.01,0.01 0,0.01 -0.01,0.01 -0.01,0.01 -0.01,0.01 -0.01,0.01 0,0.01 -0.01,0.01 -0.02,0 -0.01,0.01 -0.01,0.01 -0.01,0.01 -0.01,0 -0.02,0.01 -0.01,0 -0.02,0.01 -0.01,0 -0.02,0.01 -0.01,0 -0.02,0 -0.02,0 c -0.19,0 -0.39,-0.18 -0.39,-0.38 0,-0.12 0.09,-0.27 0.28,-0.27 0.2,0 0.39,0.2 0.39,0.39 z"
       inkscape:connector-curvature="0"
       style="fill:#00ff22;stroke-width:0;stroke-linecap:butt;stroke-linejoin:round;fill-opacity:1" /><path
       id="path6971"
       d="m 398.12,662.16 -0.01,-0.01 0,-0.02 -0.01,-0.03 -0.01,-0.02 0,-0.02 -0.01,-0.02 0,-0.01 -0.01,-0.02 0,-0.02 -0.01,-0.02 0,-0.02 0,-0.01 0,-0.01 0,-0.01 0,-0.01 0,-0.01 0,-0.01 0,-0.01 0,-0.01 c 0,-0.33 0.27,-0.59 0.66,-0.59 0.69,0 1,0.96 1,1.06 0,0.09 -0.09,0.09 -0.11,0.09 -0.1,0 -0.1,-0.04 -0.13,-0.11 -0.16,-0.56 -0.47,-0.85 -0.74,-0.85 -0.14,0 -0.18,0.1 -0.18,0.25 0,0.16 0.05,0.29 0.12,0.44 0.06,0.19 0.14,0.38 0.22,0.56 0.06,0.17 0.31,0.8 0.34,0.88 0.02,0.07 0.04,0.16 0.04,0.22 0,0.33 -0.28,0.6 -0.66,0.6 -0.69,0 -1.01,-0.95 -1.01,-1.07 0,-0.09 0.1,-0.09 0.12,-0.09 0.1,0 0.1,0.04 0.12,0.11 0.19,0.6 0.49,0.85 0.75,0.85 0.11,0 0.17,-0.06 0.17,-0.24 0,-0.16 -0.04,-0.27 -0.21,-0.7 z"
       inkscape:connector-curvature="0"
       style="fill:#00ff22;stroke-width:0;stroke-linecap:butt;stroke-linejoin:round;fill-opacity:1" /><path
       id="path6973"
       d="m 402.28,665.97 0,0 0,0 0,0 0,0 0,0 0,0 0,0 0.01,0 0,0.01 0,0 0,0 0,0.01 0,0 0,0.01 0,0 0,0.01 0,0 0.01,0.01 0,0 0,0.01 0,0.01 0,0 0,0.01 0,0 0,0.01 0.01,0 0,0 0,0.01 0,0 0,0 0,0 0,0 0,0 0,0 0,0 0,0.01 0,0 0,0 0,0 0,0 c 0,0.03 -0.03,0.09 -0.11,0.09 -0.14,0 -0.72,-0.05 -0.89,-0.07 -0.06,0 -0.16,-0.01 -0.16,-0.15 0,-0.1 0.1,-0.1 0.18,-0.1 0.34,0 0.34,-0.05 0.34,-0.11 0,-0.04 -0.02,-0.09 -0.03,-0.15 l -0.98,-3.93 c -0.04,-0.13 -0.04,-0.14 -0.04,-0.16 0,-0.1 0.09,-0.22 0.24,-0.22 0.19,0 0.28,0.14 0.32,0.29 0.02,0.03 0.31,1.25 0.34,1.35 0.5,-0.05 0.89,-0.21 0.89,-0.57 0,-0.03 0,-0.07 -0.01,-0.14 -0.03,-0.1 -0.03,-0.14 -0.03,-0.21 0,-0.5 0.41,-0.72 0.74,-0.72 0.68,0 0.88,1.06 0.88,1.06 0,0.09 -0.09,0.09 -0.11,0.09 -0.09,0 -0.1,-0.03 -0.14,-0.16 -0.08,-0.3 -0.27,-0.8 -0.61,-0.8 -0.19,0 -0.24,0.18 -0.24,0.37 0,0.11 0,0.13 0.04,0.31 0.01,0.02 0.03,0.14 0.03,0.21 0,0.62 -0.83,0.72 -1.12,0.74 0.2,0.13 0.46,0.36 0.57,0.46 0.36,0.33 0.71,0.66 1.1,0.66 0.08,0 0.17,-0.02 0.23,-0.09 -0.3,-0.05 -0.36,-0.29 -0.36,-0.39 0,-0.15 0.11,-0.26 0.27,-0.26 0.19,0 0.4,0.16 0.4,0.45 0,0.23 -0.17,0.49 -0.54,0.49 -0.39,0 -0.75,-0.29 -1.11,-0.62 -0.29,-0.27 -0.52,-0.49 -0.81,-0.61 z"
       inkscape:connector-curvature="0"
       style="fill:#00ff22;stroke-width:0;stroke-linecap:butt;stroke-linejoin:round;fill-opacity:1" /><path
       id="path6975"
       d="m 406.24,662.09 -0.01,-0.03 -0.01,-0.02 -0.01,-0.02 -0.01,-0.03 -0.01,-0.02 -0.01,-0.03 -0.01,-0.02 -0.01,-0.03 -0.02,-0.02 -0.01,-0.03 -0.02,-0.03 -0.02,-0.02 -0.01,-0.03 -0.02,-0.02 -0.02,-0.03 -0.02,-0.02 -0.02,-0.02 -0.02,-0.02 -0.03,-0.02 -0.02,-0.02 -0.03,-0.02 -0.02,-0.02 -0.03,-0.02 -0.02,-0.01 -0.03,-0.02 -0.03,-0.01 -0.03,-0.01 -0.03,-0.01 -0.03,-0.01 -0.03,0 -0.03,0 -0.04,-0.01 c -0.02,0 -0.23,0 -0.37,0.1 0.28,0.09 0.3,0.34 0.3,0.38 0,0.16 -0.11,0.26 -0.27,0.26 -0.2,0 -0.4,-0.17 -0.4,-0.42 0,-0.35 0.39,-0.51 0.73,-0.51 0.32,0 0.61,0.2 0.78,0.49 0.17,-0.36 0.55,-0.49 0.83,-0.49 0.8,0 1.22,0.87 1.22,1.06 0,0.09 -0.09,0.09 -0.11,0.09 -0.09,0 -0.1,-0.03 -0.13,-0.11 -0.15,-0.48 -0.56,-0.85 -0.95,-0.85 -0.28,0 -0.43,0.19 -0.43,0.46 0,0.18 0.17,0.81 0.36,1.58 0.14,0.54 0.46,0.71 0.69,0.71 0.01,0 0.23,0 0.37,-0.1 -0.22,-0.06 -0.3,-0.25 -0.3,-0.38 0,-0.15 0.11,-0.26 0.27,-0.26 0.16,0 0.4,0.14 0.4,0.43 0,0.39 -0.45,0.51 -0.73,0.51 -0.35,0 -0.63,-0.23 -0.78,-0.5 -0.13,0.29 -0.45,0.5 -0.83,0.5 -0.78,0 -1.23,-0.86 -1.23,-1.07 0,-0.09 0.1,-0.09 0.12,-0.09 0.09,0 0.09,0.03 0.13,0.12 0.17,0.54 0.61,0.84 0.95,0.84 0.23,0 0.42,-0.12 0.42,-0.46 0,-0.14 -0.08,-0.48 -0.14,-0.72 z"
       inkscape:connector-curvature="0"
       style="fill:#00ff22;stroke-width:0;stroke-linecap:butt;stroke-linejoin:round;fill-opacity:1" /></g></svg>
